<svg width="913.634375px" height="189.79999999999998px" xmlns="http://www.w3.org/2000/svg" viewBox="-206.8171875 -19.89999999999999 913.634375 189.79999999999998" style="background: rgba(0, 0, 0, 0);" preserveAspectRatio="xMidYMid"><defs><filter id="editing-jagged" x="-100%" y="-100%" width="300%" height="300%"><feTurbulence result="turb" baseFrequency="0.12" numOctaves="1" seed="1"></feTurbulence><feDisplacementMap in="SourceGraphic" in2="turb" scale="8.5"></feDisplacementMap></filter></defs><g filter="url(#editing-jagged)"><g transform="translate(-76.14000678062439, 124.22000217437744)"><path d="M27.39-5.88L27.39-5.88L27.39-5.88Q24.07 2.14 13.48 2.14L13.48 2.14L13.48 2.14Q8.13 2.14 4.71-1.60L4.71-1.60L4.71-1.60Q1.93-4.71 1.93-8.24L1.93-8.24L1.93-8.24Q1.93-16.26 5.67-33.81L5.67-33.81L13.48-74.90L35.20-77.04L24.82-22.90L24.82-22.90Q23.00-14.98 23.00-12.20L23.00-12.20L23.00-12.20Q23.00-6.10 27.39-5.88ZM70.83-4.49L70.83-4.49L70.83-4.49Q65.70 2.14 52.97 2.14L52.97 2.14L52.97 2.14Q46.33 2.14 41.52-1.87L41.52-1.87L41.52-1.87Q36.70-5.88 36.70-11.66L36.70-11.66L36.70-11.66Q36.70-14.87 37.02-16.48L37.02-16.48L44.19-54.57L65.91-56.71L58.10-15.41L58.10-15.41Q57.67-13.05 57.67-11.66L57.67-11.66L57.67-11.66Q57.67-5.46 61.42-5.46L61.42-5.46L61.42-5.46Q65.59-5.46 68.59-11.13L68.59-11.13L68.59-11.13Q69.55-12.95 69.98-15.30L69.98-15.30L77.57-54.57L98.65-56.71L90.74-14.98L90.74-14.98Q90.41-13.38 90.41-11.66L90.41-11.66L90.41-11.66Q90.41-9.95 91.38-8.08L91.38-8.08L91.38-8.08Q92.34-6.21 95.44-5.78L95.44-5.78L95.44-5.78Q94.80-3.21 92.56-1.50L92.56-1.50L92.56-1.50Q87.85 2.14 82.76 2.14L82.76 2.14L82.76 2.14Q77.68 2.14 74.69 0.32L74.69 0.32L74.69 0.32Q71.69-1.50 70.83-4.49ZM156.54-44.51L156.54-44.51L156.54-44.51Q156.54-40.02 152.80-37.24L152.80-37.24L152.80-37.24Q149.05-34.45 142.95-34.45L142.95-34.45L142.95-34.45Q140.38-34.45 138.89-35.20L138.89-35.20L138.89-35.20Q140.06-37.98 140.44-41.46L140.44-41.46L140.44-41.46Q140.81-44.94 140.81-45.90L140.81-45.90L140.81-45.90Q140.81-50.40 137.71-50.40L137.71-50.40L137.71-50.40Q135.57-50.40 133.16-47.72L133.16-47.72L133.16-47.72Q130.75-45.05 128.72-40.87L128.72-40.87L128.72-40.87Q124.23-31.24 124.23-21.51L124.23-21.51L124.23-21.51Q124.23-16.16 126.26-13.75L126.26-13.75L126.26-13.75Q128.29-11.34 132.79-11.34L132.79-11.34L132.79-11.34Q138.99-11.34 143.91-16.48L143.91-16.48L143.91-16.48Q145.31-18.08 146.06-19.90L146.06-19.90L146.06-19.90Q150.12-17.76 150.12-11.88L150.12-11.88L150.12-11.88Q150.12-5.88 143.49-1.93L143.49-1.93L143.49-1.93Q136.64 2.14 125.72 2.14L125.72 2.14L125.72 2.14Q104.00 2.14 104.00-20.86L104.00-20.86L104.00-20.86Q104.00-37.66 113.53-47.29L113.53-47.29L113.53-47.29Q122.73-56.71 139.63-56.71L139.63-56.71L139.63-56.71Q156.54-56.71 156.54-44.51ZM164.08-3.21L164.08-3.21L164.08-3.21Q161.57-5.99 160.45-10.38L160.45-10.38L160.45-10.38Q159.32-14.77 159.32-21.93L159.32-21.93L159.32-21.93Q159.32-29.10 161.78-35.63L161.78-35.63L161.78-35.63Q164.24-42.16 168.74-46.87L168.74-46.87L168.74-46.87Q177.94-56.71 193.13-56.71L193.13-56.71L193.13-56.71Q198.59-56.71 202.55-54.89L202.55-54.89L220.85-56.71L212.93-14.98L212.93-14.98Q212.61-13.70 212.61-11.34L212.61-11.34L212.61-11.34Q212.61-8.99 214.05-7.49L214.05-7.49L214.05-7.49Q215.50-5.99 217.64-5.78L217.64-5.78L217.64-5.78Q216.57-2.14 212.66 0L212.66 0L212.66 0Q208.76 2.14 204.37 2.14L204.37 2.14L204.37 2.14Q199.98 2.14 197.04 0.48L197.04 0.48L197.04 0.48Q194.10-1.18 193.24-3.96L193.24-3.96L193.24-3.96Q191.53-1.28 187.89 0.43L187.89 0.43L187.89 0.43Q184.25 2.14 179.39 2.14L179.39 2.14L179.39 2.14Q174.52 2.14 170.56 0.86L170.56 0.86L170.56 0.86Q166.60-0.43 164.08-3.21ZM186.66-46.65L186.66-46.65L186.66-46.65Q185.43-44.73 184.36-41.46L184.36-41.46L184.36-41.46Q183.29-38.20 181.53-29.48L181.53-29.48L181.53-29.48Q179.76-20.76 179.76-14.55L179.76-14.55L179.76-14.55Q179.76-8.35 180.72-6.53L180.72-6.53L180.72-6.53Q181.69-4.71 183.40-4.71L183.40-4.71L183.40-4.71Q186.82-4.71 189.34-7.97L189.34-7.97L189.34-7.97Q191.85-11.23 192.81-17.01L192.81-17.01L198.48-48.36L198.48-48.36Q196.24-50.29 193.62-50.29L193.62-50.29L193.62-50.29Q191.00-50.29 189.44-49.43L189.44-49.43L189.44-49.43Q187.89-48.58 186.66-46.65ZM258.62-37.56L258.62-37.56L258.62-37.56Q260.12-41.52 260.12-44.94L260.12-44.94L260.12-44.94Q260.12-51.25 254.98-51.25L254.98-51.25L254.98-51.25Q252.31-51.25 250.11-48.85L250.11-48.85L250.11-48.85Q247.92-46.44 247.92-43.44L247.92-43.44L247.92-43.44Q247.92-41.30 249.63-39.59L249.63-39.59L249.63-39.59Q252.09-37.24 258.40-33.38L258.40-33.38L258.40-33.38Q264.72-29.53 267.13-26.38L267.13-26.38L267.13-26.38Q269.53-23.22 269.53-18.89L269.53-18.89L269.53-18.89Q269.53-14.55 267.45-10.59L267.45-10.59L267.45-10.59Q265.36-6.63 261.62-3.85L261.62-3.85L261.62-3.85Q253.59 2.14 240.75 2.14L240.75 2.14L240.75 2.14Q233.79 2.14 228.44-1.50L228.44-1.50L228.44-1.50Q223.09-5.03 223.09-9.20L223.09-9.20L223.09-9.20Q223.09-13.38 226.14-15.84L226.14-15.84L226.14-15.84Q229.19-18.30 233.69-18.30L233.69-18.30L233.69-18.30Q238.18-18.30 240.96-16.59L240.96-16.59L240.96-16.59Q239.57-13.05 239.57-10.70L239.57-10.70L239.57-10.70Q239.57-3.64 245.56-3.64L245.56-3.64L245.56-3.64Q248.13-3.64 249.84-5.24L249.84-5.24L249.84-5.24Q251.56-6.85 251.56-9.63L251.56-9.63L251.56-9.63Q251.56-15.09 242.35-20.86L242.35-20.86L242.35-20.86Q234.86-25.79 233.15-27.71L233.15-27.71L233.15-27.71Q230.26-31.14 230.26-35.42L230.26-35.42L230.26-35.42Q230.26-39.70 232.30-43.76L232.30-43.76L232.30-43.76Q234.33-47.83 238.07-50.72L238.07-50.72L238.07-50.72Q245.89-56.71 259.47-56.71L259.47-56.71L259.47-56.71Q266.43-56.71 270.55-53.93L270.55-53.93L270.55-53.93Q274.67-51.15 274.67-46.44L274.67-46.44L274.67-46.44Q274.67-41.73 271.83-39.05L271.83-39.05L271.83-39.05Q269.00-36.38 263.86-36.38L263.86-36.38L263.86-36.38Q260.33-36.38 258.62-37.56ZM286.22-44.73L286.22-44.73L286.22-44.73Q289.86-49.86 295.37-53.29L295.37-53.29L295.37-53.29Q300.88-56.71 307.62-56.71L307.62-56.71L307.62-56.71Q314.37-56.71 317.58-54.57L317.58-54.57L338.55-56.71L331.27-15.62L331.27-15.62Q327.53 5.35 319.61 13.59L319.61 13.59L319.61 13.59Q312.01 21.40 297.25 21.40L297.25 21.40L297.25 21.40Q286.01 21.40 279.59 17.87L279.59 17.87L279.59 17.87Q273.17 14.34 273.17 8.45L273.17 8.45L273.17 8.45Q273.17 4.07 276.49 1.55L276.49 1.55L276.49 1.55Q279.80-0.96 284.94-0.96L284.94-0.96L284.94-0.96Q289.43-0.96 292.86 1.07L292.86 1.07L292.86 1.07Q294.89 2.14 295.85 3.64L295.85 3.64L295.85 3.64Q293.39 5.78 293.39 9.31L293.39 9.31L293.39 9.31Q293.39 13.91 297.67 13.91L297.67 13.91L297.67 13.91Q304.84 13.91 308.91-3.00L308.91-3.00L308.91-3.00Q310.09-7.60 311.05-12.20L311.05-12.20L311.05-12.20Q306.23-6.31 295.32-6.31L295.32-6.31L295.32-6.31Q287.72-6.31 283.34-9.95L283.34-9.95L283.34-9.95Q278.95-13.59 278.95-22.15L278.95-22.15L278.95-22.15Q278.95-27.50 280.77-33.54L280.77-33.54L280.77-33.54Q282.59-39.59 286.22-44.73ZM300.13-21.83L300.13-21.83L300.13-21.83Q300.13-14.55 303.88-14.55L303.88-14.55L303.88-14.55Q306.45-14.55 308.91-17.33L308.91-17.33L308.91-17.33Q310.83-19.58 311.58-22.90L311.58-22.90L317.04-50.40L317.04-50.40Q316.51-50.50 315.97-50.72L315.97-50.72L315.97-50.72Q314.90-51.15 313.51-51.15L313.51-51.15L313.51-51.15Q306.98-51.15 303.13-40.45L303.13-40.45L303.13-40.45Q300.13-32.10 300.13-21.83ZM366.05 2.14L366.05 2.14L366.05 2.14Q342.51 2.14 342.51-20.01L342.51-20.01L342.51-20.01Q342.51-35.74 351.17-45.90L351.17-45.90L351.17-45.90Q360.38-56.71 376.32-56.71L376.32-56.71L376.32-56.71Q387.88-56.71 393.76-51.36L393.76-51.36L393.76-51.36Q399.64-46.01 399.64-34.77L399.64-34.77L399.64-34.77Q399.64-17.66 390.44-7.70L390.44-7.70L390.44-7.70Q381.45 2.14 366.05 2.14ZM368.83-44.41L368.83-44.41L368.83-44.41Q367.54-41.52 366.53-37.18L366.53-37.18L366.53-37.18Q365.51-32.85 364.23-26.00L364.23-26.00L364.23-26.00Q362.94-19.15 362.94-10.70L362.94-10.70L362.94-10.70Q362.94-7.92 363.85-6.10L363.85-6.10L363.85-6.10Q364.76-4.28 367.22-4.28L367.22-4.28L367.22-4.28Q369.69-4.28 371.24-5.46L371.24-5.46L371.24-5.46Q372.79-6.63 373.96-9.42L373.96-9.42L373.96-9.42Q376.10-14.34 377.82-23.49L377.82-23.49L377.82-23.49Q379.53-32.63 379.69-36.59L379.69-36.59L379.69-36.59Q379.85-40.55 379.85-43.50L379.85-43.50L379.85-43.50Q379.85-46.44 378.99-48.36L378.99-48.36L378.99-48.36Q378.14-50.29 375.73-50.29L375.73-50.29L375.73-50.29Q373.32-50.29 371.72-48.79L371.72-48.79L371.72-48.79Q370.11-47.29 368.83-44.41ZM439.45-30.07L439.45-30.07L439.45-30.07Q443.30-36.91 443.30-43.87L443.30-43.87L443.30-43.87Q443.30-48.47 439.98-48.47L439.98-48.47L439.98-48.47Q437.42-48.47 434.74-44.08L434.74-44.08L434.74-44.08Q431.96-39.70 431.10-34.03L431.10-34.03L425.54 0L403.39 2.14L414.30-54.57L431.96-56.71L430.03-45.90L430.03-45.90Q435.28-56.71 447.05-56.71L447.05-56.71L447.05-56.71Q453.25-56.71 456.62-53.50L456.62-53.50L456.62-53.50Q459.99-50.29 459.99-43.71L459.99-43.71L459.99-43.71Q459.99-37.13 455.66-32.96L455.66-32.96L455.66-32.96Q451.33-28.78 443.94-28.78L443.94-28.78L443.94-28.78Q440.73-28.78 439.45-30.07ZM495.41-56.71L495.41-56.71L495.41-56.71Q499.26-56.71 502.26-55.85L502.26-55.85L502.26-55.85Q502.37-56.28 502.58-57.46L502.58-57.46L503.11-60.78L503.11-60.78Q503.54-62.92 504.18-66.45L504.18-66.45L505.90-74.90L527.19-77.04L515.31-14.98L515.31-14.98Q515.21-14.34 515.21-13.27L515.21-13.27L515.21-11.56L515.21-11.56Q515.21-9.20 516.38-7.44L516.38-7.44L516.38-7.44Q517.56-5.67 519.49-5.67L519.49-5.67L519.49-5.67Q517.35-0.64 510.82 1.50L510.82 1.50L510.82 1.50Q508.57 2.14 505.41 2.14L505.41 2.14L505.41 2.14Q502.26 2.14 499.37 0.48L499.37 0.48L499.37 0.48Q496.48-1.18 495.62-3.96L495.62-3.96L495.62-3.96Q493.91-1.18 490.49 0.48L490.49 0.48L490.49 0.48Q487.06 2.14 482.09 2.14L482.09 2.14L482.09 2.14Q477.11 2.14 472.99 0.86L472.99 0.86L472.99 0.86Q468.87-0.43 466.31-3.21L466.31-3.21L466.31-3.21Q461.60-8.67 461.60-21.08L461.60-21.08L461.60-21.08Q461.60-37.13 471.01-46.87L471.01-46.87L471.01-46.87Q480.43-56.71 495.41-56.71ZM494.66-50.29L494.66-50.29L494.66-50.29Q490.70-50.29 488.56-46.01L488.56-46.01L488.56-46.01Q486.42-41.73 484.23-31.14L484.23-31.14L484.23-31.14Q482.04-20.54 482.04-11.02L482.04-11.02L482.04-11.02Q482.04-4.49 485.89-4.49L485.89-4.49L485.89-4.49Q489.31-4.49 491.72-7.92L491.72-7.92L491.72-7.92Q494.13-11.34 495.09-17.01L495.09-17.01L500.87-48.36L500.87-48.36Q498.62-50.29 494.66-50.29ZM551.91 2.14L551.91 2.14L551.91 2.14Q528.37 2.14 528.37-20.01L528.37-20.01L528.37-20.01Q528.37-35.74 537.03-45.90L537.03-45.90L537.03-45.90Q546.24-56.71 562.18-56.71L562.18-56.71L562.18-56.71Q573.73-56.71 579.62-51.36L579.62-51.36L579.62-51.36Q585.50-46.01 585.50-34.77L585.50-34.77L585.50-34.77Q585.50-17.66 576.30-7.70L576.30-7.70L576.30-7.70Q567.31 2.14 551.91 2.14ZM554.69-44.41L554.69-44.41L554.69-44.41Q553.40-41.52 552.39-37.18L552.39-37.18L552.39-37.18Q551.37-32.85 550.09-26.00L550.09-26.00L550.09-26.00Q548.80-19.15 548.80-10.70L548.80-10.70L548.80-10.70Q548.80-7.92 549.71-6.10L549.71-6.10L549.71-6.10Q550.62-4.28 553.08-4.28L553.08-4.28L553.08-4.28Q555.54-4.28 557.10-5.46L557.10-5.46L557.10-5.46Q558.65-6.63 559.82-9.42L559.82-9.42L559.82-9.42Q561.96-14.34 563.68-23.49L563.68-23.49L563.68-23.49Q565.39-32.63 565.55-36.59L565.55-36.59L565.55-36.59Q565.71-40.55 565.71-43.50L565.71-43.50L565.71-43.50Q565.71-46.44 564.85-48.36L564.85-48.36L564.85-48.36Q564.00-50.29 561.59-50.29L561.59-50.29L561.59-50.29Q559.18-50.29 557.58-48.79L557.58-48.79L557.58-48.79Q555.97-47.29 554.69-44.41ZM637.08 2.14L637.08 2.14L637.08 2.14Q624.13 2.14 624.13-7.92L624.13-7.92L624.13-7.92Q624.24-10.70 625.09-15.41L625.09-15.41L627.02-25.25L627.02-25.25Q629.91-39.16 629.91-42.27L629.91-42.27L629.91-42.27Q629.91-48.47 626.27-48.47L626.27-48.47L626.27-48.47Q620.17-48.47 616.96-32.53L616.96-32.53L610.65 0L589.14 2.14L600.27-54.68L617.82-56.71L616.11-46.22L616.11-46.22Q621.13-56.71 636.54-56.71L636.54-56.71L636.54-56.71Q644.03-56.71 647.19-53.55L647.19-53.55L647.19-53.55Q650.35-50.40 650.35-43.34L650.35-43.34L650.35-43.34Q650.35-36.70 646.92-21.19L646.92-21.19L646.92-21.19Q645.32-14.23 645.32-11.61L645.32-11.61L645.32-11.61Q645.32-8.99 646.76-7.49L646.76-7.49L646.76-7.49Q648.21-5.99 650.35-5.78L650.35-5.78L650.35-5.78Q649.28-2.14 645.58 0L645.58 0L645.58 0Q641.89 2.14 637.08 2.14Z" fill="#444"></path></g></g><style>text {
  font-size: 64px;
  font-family: Arial Black;
  dominant-baseline: central;
  text-anchor: middle;
}</style></svg>